<?xml version="1.0" encoding="UTF-8" standalone="no"?>
<svg
   xmlns:dc="http://purl.org/dc/elements/1.1/"
   xmlns:cc="http://creativecommons.org/ns#"
   xmlns:rdf="http://www.w3.org/1999/02/22-rdf-syntax-ns#"
   xmlns:svg="http://www.w3.org/2000/svg"
   xmlns="http://www.w3.org/2000/svg"
   xmlns:sodipodi="http://sodipodi.sourceforge.net/DTD/sodipodi-0.dtd"
   xmlns:inkscape="http://www.inkscape.org/namespaces/inkscape"
   inkscape:version="1.0 (4035a4fb49, 2020-05-01)"
   sodipodi:docname="courses.svg"
   id="svg44"
   version="1.1"
   viewBox="-49 0 512 512.001">
  <metadata
     id="metadata50">
    <rdf:RDF>
      <cc:Work
         rdf:about="">
        <dc:format>image/svg+xml</dc:format>
        <dc:type
           rdf:resource="http://purl.org/dc/dcmitype/StillImage" />
      </cc:Work>
    </rdf:RDF>
  </metadata>
  <defs
     id="defs48" />
  <sodipodi:namedview
     inkscape:current-layer="svg44"
     inkscape:window-maximized="1"
     inkscape:window-y="-8"
     inkscape:window-x="-8"
     inkscape:cy="412.51598"
     inkscape:cx="577.46988"
     inkscape:zoom="0.538856"
     showgrid="false"
     id="namedview46"
     inkscape:window-height="837"
     inkscape:window-width="1600"
     inkscape:pageshadow="2"
     inkscape:pageopacity="0"
     guidetolerance="10"
     gridtolerance="10"
     objecttolerance="10"
     borderopacity="1"
     bordercolor="#666666"
     pagecolor="#ffffff" />
  <rect
     y="65.923584"
     x="-23.062851"
     height="346.90936"
     width="459.30368"
     id="rect875"
     style="fill:#93d08e;fill-opacity:1;stroke:none;stroke-width:40;stroke-linecap:round;stroke-miterlimit:4;stroke-dasharray:none;stroke-opacity:1" />
  <rect
     transform="rotate(91.163709)"
     ry="2"
     rx="1.4648811"
     y="-414.40234"
     x="372.27072"
     height="77.811447"
     width="29.287687"
     id="rect877"
     style="fill:#ffffff;fill-opacity:1;stroke:#000000;stroke-width:8.55827;stroke-linecap:round" />
  <rect
     style="fill:none;fill-opacity:1;stroke:#000000;stroke-width:20;stroke-linecap:round;stroke-miterlimit:4;stroke-dasharray:none;stroke-opacity:1"
     id="rect875-2"
     width="459.30368"
     height="346.90936"
     x="-23.062836"
     y="65.923584" />
  <path
     style="stroke-width:0.587086;fill:#ee2b67;fill-opacity:1"
     id="path2"
     fill="#fa9f6a"
     d="m -13.993094,481.70026 c 0,-51.28516 41.575308,-92.86047 92.86047,-92.86047 51.285164,0 92.860474,41.57531 92.860474,92.86047 z m 0,0" />
  <path
     style="stroke-width:0.587086;fill:#b61d7b;fill-opacity:1"
     id="path4"
     fill="#eb8f59"
     d="m 87.673664,389.25717 c -2.898736,-0.2729 -5.836455,-0.41738 -8.806288,-0.41738 -51.285162,0 -92.86047,41.57531 -92.86047,92.86047 H 3.6194824 c 0,-48.31533 36.8992626,-88.00554 84.0541816,-92.44309 z m 0,0" />
  <path
     style="stroke-width:0.587086;fill:#7f391c;fill-opacity:1"
     id="path6"
     fill="#cc9883"
     d="m 195.85341,306.01711 c 0,11.12711 -9.02186,20.14667 -20.14668,20.14667 -11.12711,0 -20.14668,-9.01956 -20.14668,-20.14667 0,-11.12711 9.01957,-20.14668 20.14668,-20.14668 11.12482,0 20.14668,9.01957 20.14668,20.14668 z m 0,0" />
  <path
     style="stroke-width:0.587086;fill:#7f391c;fill-opacity:1"
     id="path8"
     fill="#cc9883"
     d="m 2.1746993,306.01711 c 0,11.12711 -9.0195646,20.14667 -20.1466793,20.14667 -11.124819,0 -20.146674,-9.01956 -20.146674,-20.14667 0,-11.12711 9.021855,-20.14668 20.146674,-20.14668 11.1271147,0 20.1466793,9.01957 20.1466793,20.14668 z m 0,0" />
  <path
     style="stroke-width:0.587086"
     id="path10"
     fill="#d9d7d8"
     d="M 78.300932,376.58437 H 39.523453 l 21.460736,66.93926 c 2.412559,7.52662 9.41172,12.63152 17.316743,12.63152 7.902728,0 14.901889,-5.1049 17.314448,-12.63152 l 21.46303,-66.93926 z m 0,0" />
  <path
     style="stroke-width:0.587086"
     id="path12"
     fill="#e36465"
     d="m 78.300932,456.15515 c 5.439715,0 10.450587,-2.41944 13.833211,-6.38227 L 78.644929,419.92094 64.809423,450.14669 c 3.373448,3.73579 8.226083,6.00846 13.491509,6.00846 z m 0,0" />
  <path
     style="stroke-width:0.587086"
     id="path14"
     fill="#efedee"
     d="m 45.648866,395.69448 6.198799,19.33255 c 5.669048,2.21763 14.991331,4.89391 27.019711,4.89391 11.156927,0 19.983851,-2.30248 25.728584,-4.40544 l 7.48993,-23.3596 v -0.0436 H 45.648866 Z m 0,0" />
  <path
     style="stroke-width:0.587086;fill:#9b5c31;fill-opacity:1"
     id="path16"
     fill="#fbc4ac"
     d="m 180.49974,300.35953 c 0,56.13091 -45.50145,101.63465 -101.632364,101.63465 -56.13091,0 -101.63236,-45.50374 -101.63236,-101.63465 0,-56.12862 45.50145,-101.63236 101.63236,-101.63236 56.130914,0 101.632364,45.50374 101.632364,101.63236 z m 0,0" />
  <path
     style="stroke-width:0.587086;fill:#66331c;fill-opacity:1"
     id="path18"
     fill="#e3b098"
     d="m -5.1478232,300.35953 c 0,-53.16109 40.8185252,-96.78203 92.8237832,-101.24709 -2.903322,-0.24997 -5.841047,-0.38527 -8.808584,-0.38527 -56.13091,0 -101.63236,45.50374 -101.63236,101.63465 0,56.13091 45.50145,101.63236 101.63236,101.63236 2.967537,0 5.905262,-0.1353 8.808584,-0.38528 -52.005258,-4.46505 -92.8237832,-48.086 -92.8237832,-101.24937 z m 0,0" />
  <path
     style="stroke-width:0.587086;fill:#6a4432;fill-opacity:1"
     id="path20"
     fill="#e3b098"
     d="m 78.867376,198.72717 c -56.13091,0 -101.63236,45.50374 -101.63236,101.63236 0,0.35775 0.0092,0.71092 0.01145,1.06868 1.268199,0.1009 2.605193,0.16741 4.015579,0.16741 11.1110581,0 30.672941,-3.9399 44.781349,-28.4278 9.767183,5.3067 27.267385,12.10176 52.840023,12.10176 25.574923,0 43.075133,-6.79506 52.840013,-12.10176 14.10841,24.4879 33.67029,28.4278 44.78136,28.4278 h 0.002 c 1.39891,0 2.72215,-0.0642 3.98117,-0.16512 0.002,-0.35546 0.0114,-0.71092 0.0114,-1.06868 0,-56.13091 -45.50144,-101.63465 -101.632358,-101.63465 z m 0,0" />
  <path
     style="stroke-width:0.587086"
     id="path26"
     fill="#fd6f71"
     d="m 73.654699,431.59386 -6.46024,-6.46024 c -2.88039,-2.88039 -2.88039,-7.54726 0,-10.42765 l 6.46024,-6.45795 c 2.878095,-2.88039 7.547259,-2.88039 10.42536,0 l 6.460234,6.45795 c 2.8781,2.88039 2.8781,7.54726 0,10.42765 l -6.460234,6.46024 c -2.878101,2.8781 -7.547265,2.8781 -10.42536,0 z m 0,0" />
  <path
     style="stroke-width:0.587086;fill:#675857;fill-opacity:1"
     id="path28"
     fill="#efedee"
     d="m 78.899484,189.91858 h -0.03211 c -57.674306,0 -105.166341,44.43965 -110.030442,100.87558 0,0 34.7848381,13.62222 53.741295,-30.38399 0,0 18.112515,16.05084 56.305204,16.05084 38.192679,0 56.307489,-16.05084 56.307489,-16.05084 18.95645,44.00621 53.74129,30.38399 53.74129,30.38399 C 184.06812,234.35823 136.57608,189.91858 78.899478,189.91858 Z m 0,0" />
  <path
     style="stroke-width:0.587086;fill:#3a3a3a;fill-opacity:1"
     id="path30"
     fill="#d9d7d8"
     d="m 87.790623,190.27863 c -2.933133,-0.23391 -5.896085,-0.36005 -8.888844,-0.36005 h -0.0344 c -57.674306,0 -105.166341,44.43965 -110.030442,100.87558 0,0 7.629827,2.98817 17.688258,1.64429 1.965363,-54.44991 48.290108,-97.83006 101.265431,-102.15982 z m 0,0" />
  <path
     style="stroke-width:0.587086"
     id="path32"
     fill="#fd6f71"
     d="m 119.94734,330.08534 h -6.72397 c -2.4332,0 -4.40315,-1.97225 -4.40315,-4.40315 0,-2.4309 1.96995,-4.40314 4.40315,-4.40314 h 6.72397 c 2.4309,0 4.40314,1.97224 4.40314,4.40314 0,2.4309 -1.97224,4.40315 -4.40314,4.40315 z m 0,0" />
  <path
     style="stroke-width:0.587086"
     id="path34"
     fill="#fd6f71"
     d="m 44.511387,330.08534 h -6.723965 c -2.433201,0 -4.403144,-1.97225 -4.403144,-4.40315 0,-2.4309 1.969943,-4.40314 4.403144,-4.40314 h 6.723965 c 2.430905,0 4.403144,1.97224 4.403144,4.40314 0,2.4309 -1.969949,4.40315 -4.403144,4.40315 z m 0,0" />
  <path
     style="stroke-width:0.587086"
     id="path36"
     d="m 192.71438,291.00949 c -2.36898,-23.57746 -11.84491,-45.51521 -27.46689,-63.54058 -1.59156,-1.83694 -4.37334,-2.03416 -6.21256,-0.44261 -1.83694,1.59385 -2.03417,4.37334 -0.44261,6.21256 13.96393,16.10817 22.61197,35.59896 25.13461,56.56665 -3.13266,0.67652 -8.30864,1.33011 -14.18179,0.21786 -13.16128,-2.49282 -23.50867,-12.28523 -30.75551,-29.1112 -0.55727,-1.29114 -1.70163,-2.23139 -3.07302,-2.54328 -1.3714,-0.31189 -2.81618,0.055 -3.87798,0.97924 -0.16971,0.14907 -17.58276,14.95464 -53.399587,14.95464 -35.816829,0 -53.227594,-14.80557 -53.385832,-14.94317 -1.057212,-0.93796 -2.501995,-1.30948 -3.877978,-1.00217 -1.380567,0.3073 -2.527217,1.25902 -3.086786,2.55474 -13.945581,32.37916 -36.619481,30.78531 -44.939591,28.92774 6.36392,-52.58547 51.920412,-93.27327 105.308533,-93.27327 24.916751,0 49.147801,8.85215 68.225791,24.92592 1.85987,1.56862 4.63707,1.33012 6.20339,-0.52975 1.56633,-1.85987 1.33012,-4.63706 -0.52975,-6.20339 -20.66496,-17.41077 -46.90954,-26.99907 -73.933834,-26.99907 -28.893337,0 -56.525361,10.81064 -77.80493,30.44132 -20.73376,19.12616 -33.62901,44.91207 -36.44748,72.76654 -4.55221,4.58432 -7.13676,10.79 -7.13676,17.29381 0,11.78758 8.27194,21.74281 19.59399,24.04988 8.48063,29.01718 29.05387,52.92487 55.876353,65.8637 -31.477893,16.81679 -51.347083,49.52619 -51.347083,85.76957 0,2.4332 1.97224,4.40315 4.40314,4.40315 H 171.28346 c 2.4309,0 4.40315,-1.96995 4.40315,-4.40315 0,-36.22503 -19.87149,-68.95048 -51.34479,-85.76957 26.82249,-12.94112 47.39571,-36.84882 55.87636,-65.86829 11.30598,-2.31165 19.59398,-12.29899 19.59398,-24.04529 0,-6.48776 -2.57079,-12.6728 -7.09778,-17.25253 z m -226.874284,17.25253 c 0,-3.77936 1.36223,-7.40279 3.79083,-10.23961 0.79807,0.2087 1.7475,0.42656 2.82765,0.63066 -0.0481,1.31865 -0.0734,2.6396 -0.0734,3.95137 0,6.68727 0.63066,13.23007 1.81859,19.57793 -5.01316,-2.65105 -8.36368,-7.91419 -8.36368,-13.92035 z M 166.77253,479.54203 H -9.926554 c 1.63053,-33.27355 21.680897,-62.68289 52.193305,-76.3441 l 14.080891,43.91448 c 3.008815,9.3842 11.65228,15.69079 21.5089,15.69079 9.854325,0 18.49779,-6.30659 21.508898,-15.69079 l 14.21849,-44.34791 c 31.0651,13.46169 51.53972,43.15769 53.1886,76.77753 z M 94.85222,415.9166 c -0.460956,-0.73616 -1.002173,-1.43791 -1.642008,-2.07774 l -5.600248,-5.60025 c 5.389266,-0.46325 10.666156,-1.3347 15.796276,-2.57767 l -2.7726,8.64576 c -1.87134,0.6146 -3.8023,1.15353 -5.78142,1.6099 z m 2.56162,8.43706 -5.558969,17.33738 -3.063854,-6.7813 4.419195,-4.41919 c 1.67182,-1.67183 2.729033,-3.72892 3.183109,-5.88692 0.341701,-0.0757 0.678818,-0.16741 1.020519,-0.24997 z m -10.43224,-0.0894 -6.457944,6.46024 c -0.561859,0.56186 -1.307188,0.86916 -2.10067,0.86916 -0.793482,0 -1.538805,-0.3073 -2.100664,-0.86916 l -6.46024,-6.46024 c -1.155825,-1.15812 -1.155825,-3.04092 0,-4.19903 l 6.46024,-6.46024 c 0.561859,-0.55957 1.307182,-0.86917 2.100664,-0.86917 0.793482,0 1.538811,0.3096 2.10067,0.86917 l 6.457944,6.46024 c 1.158115,1.15811 1.158115,3.04091 0,4.19903 z m -0.57333,26.75827 c -2.373565,1.87822 -5.354863,2.97442 -8.554023,2.97442 -3.020281,0 -5.854802,-0.97236 -8.161868,-2.66711 l 5.242495,-11.45506 c 1.114542,0.344 2.286424,0.52517 3.488112,0.52517 1.029696,0 2.034165,-0.14218 3.00423,-0.39903 z M 63.635761,413.83886 c -0.642125,0.64213 -1.185638,1.34617 -1.646594,2.08462 -2.433195,-0.55957 -4.786124,-1.24298 -7.04732,-2.03875 l -2.733619,-8.52421 c 5.517692,1.40809 11.207376,2.37586 17.02778,2.87809 z m 4.054562,20.70854 -3.600486,7.86833 -5.88462,-18.34873 c 0.743033,0.19034 1.492941,0.36922 2.24973,0.53893 0.45178,2.15799 1.508999,4.21509 3.180814,5.8869 z m 10.732663,-34.71146 c -53.612863,0 -97.22922,-43.61864 -97.22922,-97.2315 0,-1.05492 0.0183,-2.11672 0.0527,-3.17623 2.39651,-0.0207 4.99711,-0.23621 7.72615,-0.7522 10.36115,-1.96307 24.485606,-8.71915 34.90409,-29.34971 7.877495,5.00857 25.78591,13.78276 54.562293,13.78276 28.776381,0 46.687081,-8.77419 54.564581,-13.78276 10.41619,20.63056 24.54294,27.38664 34.9018,29.34971 2.72215,0.5137 5.30441,0.72239 7.69404,0.74532 0.0344,1.0618 0.055,2.1259 0.055,3.18311 -0.002,53.61286 -43.61865,97.2315 -97.231517,97.2315 z M 182.64219,322.18008 c 1.18794,-6.34786 1.8163,-12.88837 1.8163,-19.57564 0,-1.31177 -0.023,-2.63042 -0.0711,-3.94678 1.08244,-0.20181 2.03187,-0.42197 2.83223,-0.62836 2.42632,2.83452 3.78625,6.45336 3.78625,10.23272 0,5.98552 -3.35281,11.25783 -8.36369,13.91806 z m 0,0" />
  <path
     style="stroke-width:0.587086"
     id="path40"
     d="m 116.58535,301.84329 c -2.4309,0 -4.40314,1.96995 -4.40314,4.40315 v 6.72397 c 0,2.4309 1.97224,4.40314 4.40314,4.40314 2.4309,0 4.40315,-1.97224 4.40315,-4.40314 v -6.72397 c 0,-2.4332 -1.97225,-4.40315 -4.40315,-4.40315 z m 0,0" />
  <path
     style="stroke-width:0.587086"
     id="path42"
     d="m 41.149405,301.84329 c -2.430906,0 -4.403144,1.96995 -4.403144,4.40315 v 6.72397 c 0,2.4309 1.972238,4.40314 4.403144,4.40314 2.430899,0 4.403144,-1.97224 4.403144,-4.40314 v -6.72397 c 0,-2.4332 -1.972245,-4.40315 -4.403144,-4.40315 z m 0,0" />
  <path
     id="path919"
     d="M 186.59576,450.65795 C 214.69434,431.20509 270.8915,311.24578 270.8915,311.24578 l -92.94145,126.4436 1.08071,16.21072 z"
     style="fill:#c43a04;stroke:#000000;stroke-width:10;stroke-linecap:butt;stroke-linejoin:miter;stroke-opacity:1;stroke-miterlimit:4;stroke-dasharray:none;fill-opacity:1" />
  <path
     id="path921"
     d="M 254.68078,193.4479 H 386.52795"
     style="fill:none;stroke:#ffffff;stroke-width:10;stroke-linecap:butt;stroke-linejoin:miter;stroke-opacity:1;stroke-miterlimit:4;stroke-dasharray:none" />
  <path
     id="path923"
     d="m 259.00364,236.67648 c 31.34072,-4.32286 125.36288,-4.32286 125.36288,-4.32286"
     style="fill:none;stroke:#ffffff;stroke-width:10;stroke-linecap:butt;stroke-linejoin:miter;stroke-opacity:1;stroke-miterlimit:4;stroke-dasharray:none" />
  <path
     id="path925"
     d="M 25.569302,139.41217 H 189.83791"
     style="fill:none;stroke:#ffffff;stroke-width:10;stroke-linecap:butt;stroke-linejoin:miter;stroke-opacity:1;stroke-miterlimit:4;stroke-dasharray:none" />
</svg>
