<?xml version="1.0" encoding="UTF-8" standalone="no"?>
<svg
   xmlns:dc="http://purl.org/dc/elements/1.1/"
   xmlns:cc="http://creativecommons.org/ns#"
   xmlns:rdf="http://www.w3.org/1999/02/22-rdf-syntax-ns#"
   xmlns:svg="http://www.w3.org/2000/svg"
   xmlns="http://www.w3.org/2000/svg"
   xmlns:sodipodi="http://sodipodi.sourceforge.net/DTD/sodipodi-0.dtd"
   xmlns:inkscape="http://www.inkscape.org/namespaces/inkscape"
   inkscape:version="1.0 (4035a4fb49, 2020-05-01)"
   sodipodi:docname="faculty.svg"
   id="svg44"
   version="1.1"
   viewBox="-49 0 512 512.001">
  <metadata
     id="metadata50">
    <rdf:RDF>
      <cc:Work
         rdf:about="">
        <dc:format>image/svg+xml</dc:format>
        <dc:type
           rdf:resource="http://purl.org/dc/dcmitype/StillImage" />
      </cc:Work>
    </rdf:RDF>
  </metadata>
  <defs
     id="defs48" />
  <sodipodi:namedview
     inkscape:current-layer="svg44"
     inkscape:window-maximized="1"
     inkscape:window-y="-8"
     inkscape:window-x="-8"
     inkscape:cy="165.39029"
     inkscape:cx="211.22211"
     inkscape:zoom="0.92531375"
     showgrid="false"
     id="namedview46"
     inkscape:window-height="837"
     inkscape:window-width="1600"
     inkscape:pageshadow="2"
     inkscape:pageopacity="0"
     guidetolerance="10"
     gridtolerance="10"
     objecttolerance="10"
     borderopacity="1"
     bordercolor="#666666"
     pagecolor="#ffffff" />
  <path
     style="fill:#ee2b67;fill-opacity:1"
     id="path2"
     fill="#fa9f6a"
     d="m48.59375 504.5c0-87.355469 70.816406-158.171875 158.171875-158.171875s158.171875 70.816406 158.171875 158.171875zm0 0" />
  <path
     style="fill:#b61d7b;fill-opacity:1"
     id="path4"
     fill="#eb8f59"
     d="m221.765625 347.039062c-4.9375-.464843-9.941406-.710937-15-.710937-87.355469 0-158.171875 70.816406-158.171875 158.171875h30c0-82.296875 62.851562-149.902344 143.171875-157.460938zm0 0" />
  <path
     style="fill:#7f391c;fill-opacity:1"
     id="path6"
     fill="#cc9883"
     d="m406.03125 205.253906c0 18.953125-15.367188 34.316406-34.316406 34.316406-18.953125 0-34.316406-15.363281-34.316406-34.316406s15.363281-34.316406 34.316406-34.316406c18.949218 0 34.316406 15.363281 34.316406 34.316406zm0 0" />
  <path
     style="fill:#7f391c;fill-opacity:1"
     id="path8"
     fill="#cc9883"
     d="m76.132812 205.253906c0 18.953125-15.363281 34.316406-34.316406 34.316406-18.949218 0-34.316406-15.363281-34.316406-34.316406s15.367188-34.316406 34.316406-34.316406c18.953125 0 34.316406 15.363281 34.316406 34.316406zm0 0" />
  <path
     id="path10"
     fill="#d9d7d8"
     d="m205.800781 325.453125h-66.050781l36.554688 114.019531c4.109374 12.820313 16.03125 21.515625 29.496093 21.515625 13.460938 0 25.382813-8.695312 29.492188-21.515625l36.558593-114.019531zm0 0" />
  <path
     id="path12"
     fill="#e36465"
     d="m205.800781 460.988281c9.265625 0 17.800781-4.121093 23.5625-10.871093l-22.976562-50.847657-23.566407 51.484375c5.746094 6.363282 14.011719 10.234375 22.980469 10.234375zm0 0" />
  <path
     id="path14"
     fill="#efedee"
     d="m150.183594 358.003906 10.558594 32.929688c9.65625 3.777344 25.535156 8.335937 46.023437 8.335937 19.003906 0 34.039063-3.921875 43.824219-7.503906l12.757812-39.789063v-.074218h-113.164062zm0 0" />
  <path
     style="fill:#9b5c31;fill-opacity:1"
     id="path16"
     fill="#fbc4ac"
     d="m379.878906 195.617188c0 95.609374-77.503906 173.117187-173.113281 173.117187s-173.113281-77.507813-173.113281-173.117187c0-95.605469 77.503906-173.113282 173.113281-173.113282s173.113281 77.507813 173.113281 173.113282zm0 0" />
  <path
     style="fill:#66331c;fill-opacity:1"
     id="path18"
     fill="#e3b098"
     d="m63.660156 195.617188c0-90.550782 69.527344-164.851563 158.109375-172.457032-4.945312-.425781-9.949219-.65625-15.003906-.65625-95.609375 0-173.113281 77.507813-173.113281 173.117188s77.503906 173.113281 173.113281 173.113281c5.054687 0 10.058594-.230469 15.003906-.65625-88.582031-7.605469-158.109375-81.90625-158.109375-172.460937zm0 0" />
  <path
     style="fill:#66331c;fill-opacity:1"
     id="path20"
     fill="#e3b098"
     d="m206.765625 22.503906c-95.609375 0-173.113281 77.507813-173.113281 173.113282 0 .609374.015625 1.210937.019531 1.820312 2.160156.171875 4.4375.285156 6.839844.285156 18.925781 0 52.246093-6.710937 76.277343-48.421875 16.636719 9.039063 46.445313 20.613281 90.003907 20.613281 43.5625 0 73.371093-11.574218 90.003906-20.613281 24.03125 41.710938 57.351563 48.421875 76.277344 48.421875h.003906c2.382813 0 4.636719-.109375 6.78125-.28125.003906-.605468.019531-1.210937.019531-1.820312 0-95.609375-77.503906-173.117188-173.113281-173.117188zm0 0" />
  <path
     id="path26"
     fill="#fd6f71"
     d="m197.886719 419.152344-11.003907-11.003906c-4.90625-4.90625-4.90625-12.855469 0-17.761719l11.003907-11c4.902343-4.90625 12.855469-4.90625 17.757812 0l11.003907 11c4.902343 4.90625 4.902343 12.855469 0 17.761719l-11.003907 11.003906c-4.902343 4.902344-12.855469 4.902344-17.757812 0zm0 0" />
  <path
     style="fill:#675857;fill-opacity:1"
     id="path28"
     fill="#efedee"
     d="m206.820312 7.5h-.054687c-98.238281 0-179.132813 75.695312-187.417969 171.824219 0 0 59.25 23.203125 91.539063-51.753907 0 0 30.851562 27.339844 95.90625 27.339844 65.054687 0 95.910156-27.339844 95.910156-27.339844 32.289063 74.957032 91.539063 51.753907 91.539063 51.753907-8.285157-96.128907-89.179688-171.824219-187.421876-171.824219zm0 0" />
  <path
     style="fill:#222222;fill-opacity:1"
     id="path30"
     fill="#d9d7d8"
     d="m221.964844 8.113281c-4.996094-.398437-10.042969-.613281-15.140625-.613281h-.058594c-98.238281 0-179.132813 75.695312-187.417969 171.824219 0 0 12.996094 5.089843 30.128906 2.800781 3.347657-92.746094 82.253907-166.636719 172.488282-174.011719zm0 0" />
  <path
     id="path32"
     fill="#fd6f71"
     d="m276.738281 246.25h-11.453125c-4.144531 0-7.5-3.359375-7.5-7.5s3.355469-7.5 7.5-7.5h11.453125c4.140625 0 7.5 3.359375 7.5 7.5s-3.359375 7.5-7.5 7.5zm0 0" />
  <path
     id="path34"
     fill="#fd6f71"
     d="m148.246094 246.25h-11.453125c-4.144531 0-7.5-3.359375-7.5-7.5s3.355469-7.5 7.5-7.5h11.453125c4.140625 0 7.5 3.359375 7.5 7.5s-3.355469 7.5-7.5 7.5zm0 0" />
  <path
     id="path36"
     d="m 405.43359,181.74999 c -4.03516,-40.16015 -20.17578,-77.52734 -46.78516,-108.230465 -2.71094,-3.1289 -7.44922,-3.46484 -10.58203,-0.7539 -3.12891,2.71484 -3.46484,7.44922 -0.75391,10.58203 23.78516,27.437495 38.51563,60.636715 42.8125,96.351555 -5.33593,1.15234 -14.15234,2.26563 -24.15625,0.37109 -22.41796,-4.24609 -40.04296,-20.92578 -52.38671,-49.58593 -0.94922,-2.19922 -2.89844,-3.80078 -5.23438,-4.33203 -2.33594,-0.53125 -4.79687,0.0937 -6.60547,1.66796 -0.28906,0.25391 -29.94922,25.47266 -90.95703,25.47266 -61.00781,0 -90.66406,-25.21875 -90.93359,-25.45312 -1.80078,-1.59766 -4.26172,-2.23047 -6.60547,-1.70704 -2.35156,0.52344 -4.30469,2.14454 -5.25781,4.35157 -23.753906,55.15234 -62.375,52.4375 -76.546875,49.27343 C 42.281248,90.187495 119.8789,20.882805 210.8164,20.882805 c 42.44141,0 83.71484,15.07813 116.21094,42.45704 3.16797,2.67187 7.89844,2.26562 10.5664,-0.90235 2.66797,-3.16797 2.26563,-7.89844 -0.90234,-10.5664 -35.19922,-29.65625 -79.90234,-45.98829 -125.93359,-45.98829 -49.21485,0 -96.28125,18.41407 -132.527346,51.85157 -35.316403,32.57812 -57.281247,76.499995 -62.082028,123.945305 -7.753906,7.80859 -12.15625,18.37892 -12.15625,29.45703 0,20.07813 14.089844,37.03516 33.375,40.96484 14.445312,49.42579 49.488278,90.14844 95.175774,112.1875 -53.617176,28.64454 -87.46093,84.35938 -87.46093,146.09376 0,4.14453 3.359375,7.49999 7.5,7.49999 h 316.34765 c 4.14063,0 7.5,-3.35546 7.5,-7.49999 0,-61.70313 -33.84765,-117.44531 -87.45703,-146.09375 45.6875,-22.04296 80.73047,-62.76563 95.17578,-112.19531 19.25781,-3.9375 33.375,-20.94923 33.375,-40.95703 0,-11.05078 -4.3789,-21.58594 -12.08984,-29.38673 z M 18.992186,211.13671 c 0,-6.4375 2.320312,-12.60937 6.457031,-17.44141 1.359375,0.35547 2.976563,0.72657 4.816407,1.07422 -0.08203,2.2461 -0.125,4.4961 -0.125,6.73048 0,11.39062 1.074218,22.53516 3.097656,33.34766 -8.539063,-4.51563 -14.246094,-13.48048 -14.246094,-23.71095 z M 361.24609,502.88281 H 60.26953 c 2.777344,-56.67579 36.929684,-106.76954 88.90234,-130.03907 l 23.98437,74.80078 c 5.125,15.98438 19.84766,26.72658 36.63672,26.72658 16.78516,0 31.50782,-10.7422 36.63672,-26.72658 l 24.21875,-75.53906 c 52.91406,22.92969 87.78906,73.51172 90.59766,130.77735 z m -122.50391,-108.375 c -0.78515,-1.2539 -1.70703,-2.44921 -2.79687,-3.53906 l -9.53907,-9.53907 c 9.17969,-0.78906 18.16797,-2.27343 26.90625,-4.39062 l -4.72265,14.72656 c -3.1875,1.04688 -6.47656,1.96484 -9.84766,2.74219 z m 4.36328,14.3711 -9.46875,29.53125 -5.21875,-11.55078 7.52735,-7.52735 c 2.84765,-2.84765 4.64843,-6.35156 5.42187,-10.02734 0.58203,-0.12891 1.15625,-0.28516 1.73828,-0.42578 z m -17.76953,-0.15235 -11,11.00391 c -0.95703,0.95703 -2.22656,1.48046 -3.57812,1.48046 -1.35157,0 -2.6211,-0.52344 -3.57813,-1.48046 l -11.0039,-11.00391 c -1.96875,-1.97265 -1.96875,-5.17969 0,-7.15234 l 11.0039,-11.00391 c 0.95703,-0.95313 2.22656,-1.48046 3.57813,-1.48046 1.35156,0 2.62109,0.52733 3.57812,1.48046 l 11,11.00391 c 1.97266,1.97266 1.97266,5.17969 0,7.15234 z m -0.97656,45.57812 c -4.04297,3.19922 -9.12109,5.06642 -14.57031,5.06642 -5.14453,0 -9.97266,-1.65625 -13.90235,-4.54297 l 8.92969,-19.51172 c 1.89844,0.58594 3.89453,0.89453 5.94141,0.89453 1.7539,0 3.46484,-0.24219 5.11718,-0.67969 z m -38.78906,-63.33593 c -1.09375,1.09375 -2.01953,2.29297 -2.80469,3.55077 -4.14453,-0.95312 -8.15234,-2.11718 -12.00391,-3.47265 l -4.65625,-14.51952 c 9.39844,2.39843 19.08985,4.04687 29.00391,4.90233 z m 6.90625,35.27343 -6.13282,13.40234 -10.02343,-31.2539 c 1.26562,0.32423 2.54297,0.6289 3.83203,0.91798 0.76953,3.67577 2.57031,7.17968 5.41797,10.02733 z m 18.28125,-59.125 c -91.32032,0 -165.61328,-74.29687 -165.61328,-165.61718 0,-1.79688 0.03125,-3.60548 0.08984,-5.41015 4.082031,-0.0352 8.511718,-0.40235 13.160156,-1.28125 17.648434,-3.34375 41.707034,-14.85157 59.453124,-49.99219 13.41797,8.53125 43.92188,23.47656 92.9375,23.47656 49.01563,0 79.52344,-14.94531 92.94141,-23.47656 17.74218,35.14062 41.80468,46.64844 59.44922,49.99219 4.63671,0.875 9.03515,1.23046 13.10546,1.26952 0.0586,1.80859 0.0937,3.62109 0.0937,5.42188 -0.004,91.32031 -74.29687,165.61718 -165.61718,165.61718 z M 388.27734,234.84374 c 2.02344,-10.8125 3.09375,-21.95312 3.09375,-33.34375 0,-2.23437 -0.0391,-4.48047 -0.1211,-6.72265 1.84375,-0.34375 3.46094,-0.71875 4.82422,-1.07032 4.13282,4.82813 6.44922,10.99219 6.44922,17.42969 0,10.19531 -5.71094,19.17578 -14.24609,23.70703 z m 0,0" />
  <path
     id="path40"
     d="m271.011719 198.144531c-4.140625 0-7.5 3.355469-7.5 7.5v11.453125c0 4.140625 3.359375 7.5 7.5 7.5s7.5-3.359375 7.5-7.5v-11.453125c0-4.144531-3.359375-7.5-7.5-7.5zm0 0" />
  <path
     id="path42"
     d="m142.519531 198.144531c-4.140625 0-7.5 3.355469-7.5 7.5v11.453125c0 4.140625 3.359375 7.5 7.5 7.5s7.5-3.359375 7.5-7.5v-11.453125c0-4.144531-3.359375-7.5-7.5-7.5zm0 0" />
</svg>
