<?xml version="1.0" encoding="UTF-8" standalone="no"?>
<svg
   xmlns:dc="http://purl.org/dc/elements/1.1/"
   xmlns:cc="http://creativecommons.org/ns#"
   xmlns:rdf="http://www.w3.org/1999/02/22-rdf-syntax-ns#"
   xmlns:svg="http://www.w3.org/2000/svg"
   xmlns="http://www.w3.org/2000/svg"
   xmlns:sodipodi="http://sodipodi.sourceforge.net/DTD/sodipodi-0.dtd"
   xmlns:inkscape="http://www.inkscape.org/namespaces/inkscape"
   inkscape:version="1.0 (4035a4fb49, 2020-05-01)"
   sodipodi:docname="student.svg"
   id="svg44"
   version="1.1"
   viewBox="-49 0 512 512.00101">
  <metadata
     id="metadata50">
    <rdf:RDF>
      <cc:Work
         rdf:about="">
        <dc:format>image/svg+xml</dc:format>
        <dc:type
           rdf:resource="http://purl.org/dc/dcmitype/StillImage" />
      </cc:Work>
    </rdf:RDF>
  </metadata>
  <defs
     id="defs48" />
  <sodipodi:namedview
     inkscape:current-layer="svg44"
     inkscape:window-maximized="1"
     inkscape:window-y="-8"
     inkscape:window-x="-8"
     inkscape:cy="129.7096"
     inkscape:cx="68.921398"
     inkscape:zoom="0.6824073"
     showgrid="false"
     id="namedview46"
     inkscape:window-height="837"
     inkscape:window-width="1600"
     inkscape:pageshadow="2"
     inkscape:pageopacity="0"
     guidetolerance="10"
     gridtolerance="10"
     objecttolerance="10"
     borderopacity="1"
     bordercolor="#666666"
     pagecolor="#ffffff" />
  <path
     id="path2"
     fill="#46926f"
     d="m344.402344 504.496094h-275.277344v-139.683594c0-12.621094 10.234375-22.851562 22.851562-22.851562h229.578126c12.617187 0 22.847656 10.230468 22.847656 22.851562zm0 0" />
  <path
     style="fill:none;stroke:#000000;stroke-width:15;stroke-miterlimit:4;stroke-dasharray:none;stroke-opacity:1"
     d="M 344.40234,504.49609 H 69.125008 V 364.8125 c 0,-12.62109 10.23437,-22.85156 22.85156,-22.85156 H 321.55469 c 12.61718,0 22.84765,10.23047 22.84765,22.85156 z m 0,0"
     fill="#46926f"
     id="path2-3" />
  <path
     style="fill:#a56b53;fill-opacity:1"
     id="path4"
     fill="#cc9883"
     d="m406.03125 205.25c0 18.953125-15.363281 34.316406-34.316406 34.316406s-34.316406-15.363281-34.316406-34.316406 15.363281-34.316406 34.316406-34.316406 34.316406 15.363281 34.316406 34.316406zm0 0" />
  <path
     style="fill:none;fill-opacity:1;stroke:#000000;stroke-width:15;stroke-miterlimit:4;stroke-dasharray:none;stroke-opacity:1"
     id="path6-7-6"
     fill="#cc9883"
     d="m 406.03125,205.25 c 0,18.95312 -15.36328,34.31641 -34.3164,34.31641 -18.95313,0 -34.31641,-15.36329 -34.31641,-34.31641 0,-18.95313 15.36328,-34.31641 34.31641,-34.31641 18.95312,0 34.3164,15.36328 34.3164,34.31641 z m 0,0" />
  <path
     style="fill:#a56b53;fill-opacity:1"
     id="path6"
     fill="#cc9883"
     d="m76.132812 205.25c0 18.953125-15.363281 34.316406-34.316406 34.316406s-34.316406-15.363281-34.316406-34.316406 15.363281-34.316406 34.316406-34.316406 34.316406 15.363281 34.316406 34.316406zm0 0" />
  <path
     d="m 76.132812,205.25 c 0,18.95312 -15.36328,34.31641 -34.3164,34.31641 -18.95313,0 -34.31641,-15.36329 -34.31641,-34.31641 0,-18.95313 15.36328,-34.31641 34.31641,-34.31641 18.95312,0 34.3164,15.36328 34.3164,34.31641 z m 0,0"
     fill="#cc9883"
     id="path6-7"
     style="fill:none;fill-opacity:1;stroke:#000000;stroke-width:15;stroke-miterlimit:4;stroke-dasharray:none;stroke-opacity:1" />
  <path
     id="path8"
     fill="#efedee"
     d="m48.589844 504.496094c0-87.355469 70.816406-158.171875 158.175781-158.171875 87.355469 0 158.171875 70.816406 158.171875 158.171875zm0 0" />
  <path
     style="fill:#ec7d00;fill-opacity:1"
     id="path10"
     fill="#e36465"
     d="m234.652344 504.496094-20-89.984375h-16.949219l-20 89.984375zm0 0" />
  <path
     id="path12"
     fill="#d9d7d8"
     d="m206.765625 354.835938h-58.273437v35.082031s22.226562 13.699219 58.273437 13.699219 58.273437-13.699219 58.273437-13.699219v-35.082031zm0 0" />
  <path
     id="path14"
     fill="#d9d7d8"
     d="m221.765625 347.039062c-4.9375-.464843-9.941406-.714843-15-.714843-87.355469 0-158.175781 70.816406-158.175781 158.171875h30.003906c0-82.292969 62.851562-149.902344 143.171875-157.457032zm0 0" />
  <path
     style="fill:none;stroke:#000000;stroke-width:15;stroke-miterlimit:4;stroke-dasharray:none;stroke-opacity:1"
     d="m 206.76562,354.83594 h -58.27343 v 35.08203 c 0,0 22.22656,13.69922 58.27343,13.69922 36.04688,0 58.27344,-13.69922 58.27344,-13.69922 v -35.08203 z m 0,0"
     fill="#d9d7d8"
     id="path12-5" />
  <path
     id="path16"
     fill="#58b78c"
     d="m262.792969 356.546875v147.949219h44v-122.523438c-13.085938-10.695312-27.917969-19.332031-44-25.425781zm0 0" />
  <path
     id="path18"
     fill="#58b78c"
     d="m106.738281 381.972656v122.523438h44v-147.949219c-16.085937 6.09375-30.914062 14.730469-44 25.425781zm0 0" />
  <path
     style="fill:none;stroke:#000000;stroke-width:15;stroke-miterlimit:4;stroke-dasharray:none;stroke-opacity:1"
     d="m 48.58984,504.49609 c 0,-87.35546 70.8164,-158.17186 158.17578,-158.17186 87.35547,0 158.17188,70.8164 158.17188,158.17186 z m 0,0"
     fill="#efedee"
     id="path8-7" />
  <path
     style="fill:none;stroke:#000000;stroke-width:15;stroke-miterlimit:4;stroke-dasharray:none;stroke-opacity:1"
     d="m 265.03906,354.83594 v 147.94922 h 44 V 380.26173 c -13.08594,-10.69532 -27.91797,-19.33204 -44,-25.42579 z m 0,0"
     fill="#58b78c"
     id="path16-7" />
  <path
     style="fill:none;stroke:#000000;stroke-width:15;stroke-miterlimit:4;stroke-dasharray:none;stroke-opacity:1"
     d="m 108.98437,380.26173 v 122.52344 h 44 V 354.83594 c -16.08594,6.09375 -30.91406,14.73047 -44,25.42579 z m 0,0"
     fill="#58b78c"
     id="path18-5" />
  <path
     style="fill:#a56950;fill-opacity:1"
     id="path20"
     fill="#fbc4ac"
     d="m379.882812 195.617188c0 95.609374-77.507812 173.113281-173.117187 173.113281s-173.117187-77.503907-173.117187-173.113281c0-95.609376 77.507812-173.117188 173.117187-173.117188s173.117187 77.507812 173.117187 173.117188zm0 0" />
  <path
     sodipodi:nodetypes="ssscscccscs"
     style="fill:#7e4831;fill-opacity:1"
     id="path22"
     fill="#e3b098"
     d="m 206.76562,22.5 c -95.60937,0 -173.117182,77.50781 -173.117182,173.11719 0,95.60937 77.507812,173.11328 173.117182,173.11328 5.05469,0 10.0586,-0.23047 15.00391,-0.65235 C 133.1875,360.46875 63.65625,286.16797 63.65625,195.61719 c 0,-0.40235 0.01172,-0.80078 0.01563,-1.20313 -9.184719,-86.11039 88.506625,-74.8471 141.565385,-78.96287 85.58937,7.55596 117.65441,12.1732 167.27836,79.77537 h 0.004 c 2.64063,0 5.09766,-0.0312 7.35156,-0.0898 C 379.61719,99.75 302.21484,22.5 206.76562,22.5 Z" />
  <path
     sodipodi:nodetypes="scccs"
     style="fill:#262626;fill-opacity:1"
     id="path24"
     fill="#fadc60"
     d="m 206.76562,7.5 c -98.23828,0 -163.845288,70.342141 -172.134351,166.46715 0,0 -9.218615,-62.8346 172.134351,-66.4032 127.86033,3.5686 172.13046,69.45992 172.13046,69.45992 C 370.61092,80.898864 305.00391,7.5 206.76562,7.5 Z" />
  <path
     sodipodi:nodetypes="ccsccc"
     style="fill:#000000;fill-opacity:1"
     id="path26"
     fill="#e6cb59"
     d="M 79.918789,125.82377 C 87.778165,34.640166 130.40625,15.34375 221.76562,8.101562 216.81641,7.710938 211.8125,7.5 206.76562,7.5 108.52734,7.5 46.741236,65.615251 38.452173,161.74026 c 0,0 2.730142,-24.35324 24.691079,-25.46261 3.219931,-12.47299 16.775537,-10.45388 16.775537,-10.45388 z" />
  <path
     d="m 234.65234,504.49609 -20,-89.98436 h -16.94922 l -20,89.98436 z m 0,0"
     fill="#e36465"
     id="path10-2"
     style="fill:none;fill-opacity:1;stroke:#000000;stroke-width:15;stroke-miterlimit:4;stroke-dasharray:none;stroke-opacity:1" />
  <path
     d="m 197.88672,419.14844 -11.00391,-11 c -4.90625,-4.90625 -4.90625,-12.85938 0,-17.76172 l 11.00391,-11.00391 c 4.90234,-4.90234 12.85547,-4.90234 17.75781,0 l 11.00391,11.00391 c 4.90234,4.90234 4.90234,12.85547 0,17.76172 l -11.00391,11 c -4.90234,4.90625 -12.85547,4.90625 -17.75781,0 z m 0,0"
     id="path28"
     style="fill:#fd5129;fill-opacity:1" />
  <path
     d="m 276.72266,246.31641 h -11.45313 c -4.14062,0 -7.5,-3.35938 -7.5,-7.5 0,-4.14454 3.35938,-7.5 7.5,-7.5 h 11.45313 c 4.14062,0 7.5,3.35546 7.5,7.5 0,4.14062 -3.35938,7.5 -7.5,7.5 z m 0,0"
     id="path30"
     style="fill:#fd6f71" />
  <path
     d="m 148.26172,246.31641 h -11.45313 c -4.14062,0 -7.5,-3.35938 -7.5,-7.5 0,-4.14454 3.35938,-7.5 7.5,-7.5 h 11.45313 c 4.14062,0 7.5,3.35546 7.5,7.5 0,4.14062 -3.35938,7.5 -7.5,7.5 z m 0,0"
     id="path32"
     style="fill:#fd6f71" />
  <path
     id="path36"
     d="m227.40625 230.40625c-3.59375-2.066406-8.179688-.828125-10.242188 2.761719-2.136718 3.71875-6.121093 6.023437-10.398437 6.023437s-8.261719-2.308594-10.398437-6.023437c-2.066407-3.589844-6.648438-4.828125-10.242188-2.761719-3.589844 2.0625-4.828125 6.648438-2.761719 10.238281 4.804688 8.355469 13.769531 13.546875 23.402344 13.546875 9.628906 0 18.597656-5.1875 23.402344-13.546875 2.0625-3.589843.828125-8.171875-2.761719-10.238281zm0 0" />
  <path
     id="path38"
     d="m270.996094 198.214844c-4.140625 0-7.5 3.359375-7.5 7.5v11.453125c0 4.144531 3.359375 7.5 7.5 7.5s7.5-3.355469 7.5-7.5v-11.453125c0-4.140625-3.359375-7.5-7.5-7.5zm0 0" />
  <path
     id="path40"
     d="m142.535156 198.214844c-4.140625 0-7.5 3.359375-7.5 7.5v11.453125c0 4.144531 3.359375 7.5 7.5 7.5 4.144532 0 7.5-3.355469 7.5-7.5v-11.453125c0-4.140625-3.355468-7.5-7.5-7.5zm0 0" />
  <path
     d="m 379.87119,187.13676 c 0,95.60937 -77.50782,173.11328 -173.11719,173.11328 -95.60937,0 -173.117185,-77.50391 -173.117185,-173.11328 0,-95.609381 77.507815,-173.117191 173.117185,-173.117191 95.60938,0 173.11719,77.50781 173.11719,173.117191 z m 0,0"
     fill="#fbc4ac"
     id="path20-5"
     style="fill:none;fill-opacity:1;stroke:#000000;stroke-width:15;stroke-miterlimit:4;stroke-dasharray:none;stroke-opacity:1" />
  <path
     sodipodi:nodetypes="csc"
     id="path1050"
     d="m 36.189371,150.42625 c 0,0 67.249519,-46.77743 166.785089,-46.28907 116.86282,0.57338 173.65882,61.57268 173.65882,61.57268"
     style="fill:none;stroke:#000000;stroke-width:15.7;stroke-linecap:butt;stroke-linejoin:miter;stroke-miterlimit:4;stroke-dasharray:none;stroke-opacity:1" />
  <path
     style="fill:none;fill-opacity:1;stroke:#000000;stroke-width:15;stroke-miterlimit:4;stroke-dasharray:none;stroke-opacity:1"
     id="path28-6"
     d="m 197.88672,419.14845 -11.00391,-11 c -4.90625,-4.90625 -4.90625,-12.85938 0,-17.76172 l 11.00391,-11.00391 c 4.90234,-4.90234 12.85547,-4.90234 17.75781,0 l 11.00391,11.00391 c 4.90234,4.90234 4.90234,12.85547 0,17.76172 l -11.00391,11 c -4.90234,4.90625 -12.85547,4.90625 -17.75781,0 z m 0,0" />
</svg>
